<svg width="96" height="96" xmlns="http://www.w3.org/2000/svg" xmlns:xlink="http://www.w3.org/1999/xlink" xml:space="preserve" overflow="hidden"><g><path d="M72.2 13C72.2 17.4183 68.6183 21 64.2 21 59.7817 21 56.2 17.4183 56.2 13 56.2 8.58172 59.7817 5 64.2 5 68.6183 5 72.2 8.58172 72.2 13Z"/><path d="M83.6 24C81.6 23 79.2 23.7 78.2 25.7L74.7 32.3 59.3 22.6C58.7 22.2 58 22 57.2 22L40.2 22C38.7 22 37.4 22.8 36.7 24.1L30.2 36.1C29.1 38 29.9 40.5 31.8 41.5 32.4 41.8 33.1 42 33.7 42 35.1 42 36.5 41.2 37.2 39.9L42.6 30 48.5 30 30.8 63 14.2 63C12 63 10.2 64.8 10.2 67 10.2 69.2 12 71 14.2 71L33.2 71C34.7 71 36 70.2 36.7 68.9L43.7 56 55.2 66.7 54.3 86.8C54.1 89 55.8 90.9 58 91 58.1 91 58.1 91 58.2 91 60.3 91 62.1 89.3 62.2 87.2L63.2 65.2C63.3 64 62.8 62.9 61.9 62.1L52.2 53.1 62.4 34.1 74 41.4C74.9 42 76.1 42.2 77.2 41.9 78.3 41.6 79.2 40.9 79.7 39.9L85.2 29.4C86.3 27.5 85.6 25.1 83.6 24Z"/></g></svg>